<svg width="16" height="16" viewBox="0 0 16 16" fill="none" xmlns="http://www.w3.org/2000/svg">
<g clip-path="url(#clip0_1_383)">
<path d="M11.3258 1.3324H4.66355C2.82383 1.3324 1.33244 2.82378 1.33244 4.6635V11.3257C1.33244 13.1654 2.82383 14.6568 4.66355 14.6568H11.3258C13.1655 14.6568 14.6569 13.1654 14.6569 11.3257V4.6635C14.6569 2.82378 13.1655 1.3324 11.3258 1.3324Z" stroke="white" stroke-opacity="0.4" stroke-width="1.33244" stroke-linecap="round" stroke-linejoin="round"/>
<path d="M10.6595 7.5749C10.7417 8.12935 10.647 8.69562 10.3889 9.19316C10.1307 9.69069 9.72225 10.0942 9.22157 10.3462C8.72089 10.5982 8.1535 10.6859 7.6001 10.5968C7.04669 10.5078 6.53546 10.2465 6.13911 9.85015C5.74276 9.4538 5.48148 8.94256 5.39243 8.38916C5.30338 7.83576 5.3911 7.26836 5.6431 6.76768C5.89511 6.26701 6.29857 5.85854 6.7961 5.60038C7.29363 5.34222 7.8599 5.24751 8.41436 5.32973C8.97993 5.4136 9.50353 5.67714 9.90783 6.08143C10.3121 6.48572 10.5757 7.00933 10.6595 7.5749Z" stroke="white" stroke-opacity="0.4" stroke-width="1.33244" stroke-linecap="round" stroke-linejoin="round"/>
<path d="M11.6589 4.33044H11.6655" stroke="white" stroke-opacity="0.4" stroke-width="1.33244" stroke-linecap="round" stroke-linejoin="round"/>
</g>
<defs>
<clipPath id="clip0_1_383">
<rect width="15.9893" height="15.9893" fill="white"/>
</clipPath>
</defs>
</svg>
