<svg width="13" height="13" viewBox="0 0 13 13" fill="none" xmlns="http://www.w3.org/2000/svg">
<g clip-path="url(#clip0_1_176)">
<path d="M7.79965 7.79965L5.19977 5.19977" stroke="#C8FF00" stroke-width="1.08328" stroke-linecap="round" stroke-linejoin="round"/>
<path d="M10.1054 11.6372C9.90227 11.8404 9.62675 11.9545 9.33944 11.9546C9.05212 11.9546 8.77656 11.8406 8.57336 11.6374C8.37017 11.4343 8.25598 11.1588 8.25593 10.8715C8.25588 10.5842 8.36997 10.3086 8.57309 10.1054L7.61601 11.063C7.41282 11.2662 7.13722 11.3804 6.84986 11.3804C6.5625 11.3804 6.2869 11.2662 6.08371 11.063C5.88051 10.8598 5.76636 10.5842 5.76636 10.2969C5.76636 10.0095 5.88051 9.73391 6.08371 9.53072L9.53072 6.08371C9.73391 5.88051 10.0095 5.76636 10.2969 5.76636C10.5842 5.76636 10.8598 5.88051 11.063 6.08371C11.2662 6.2869 11.3804 6.5625 11.3804 6.84986C11.3804 7.13722 11.2662 7.41282 11.063 7.61601L10.1054 8.57309C10.3086 8.36997 10.5842 8.25588 10.8715 8.25593C11.1588 8.25598 11.4343 8.37017 11.6374 8.57336C11.8406 8.77656 11.9546 9.05212 11.9546 9.33944C11.9545 9.62675 11.8404 9.90227 11.6372 10.1054L10.1054 11.6372Z" stroke="#C8FF00" stroke-width="1.08328" stroke-linecap="round" stroke-linejoin="round"/>
<path d="M11.6453 11.6453L10.887 10.887" stroke="#C8FF00" stroke-width="1.08328" stroke-linecap="round" stroke-linejoin="round"/>
<path d="M2.11239 2.11239L1.3541 1.3541" stroke="#C8FF00" stroke-width="1.08328" stroke-linecap="round" stroke-linejoin="round"/>
<path d="M3.46867 6.91568C3.26548 7.11888 2.98988 7.23303 2.70252 7.23303C2.41516 7.23303 2.13957 7.11888 1.93637 6.91568C1.73317 6.71249 1.61902 6.43689 1.61902 6.14953C1.61902 5.86217 1.73317 5.58657 1.93637 5.38338L2.89399 4.4263C2.79338 4.52687 2.67394 4.60665 2.5425 4.66107C2.41106 4.71549 2.27018 4.74348 2.12792 4.74346C1.84061 4.7434 1.56508 4.62922 1.36196 4.42603C1.26138 4.32541 1.18161 4.20598 1.12719 4.07453C1.07277 3.94309 1.04477 3.80222 1.0448 3.65995C1.04485 3.37264 1.15903 3.09712 1.36223 2.89399L2.89399 1.36223C3.09712 1.15903 3.37264 1.04485 3.65995 1.0448C3.80222 1.04477 3.94309 1.07277 4.07453 1.12719C4.20598 1.18161 4.32541 1.26138 4.42603 1.36196C4.52664 1.46254 4.60646 1.58195 4.66092 1.71337C4.71538 1.84479 4.74343 1.98566 4.74346 2.12792C4.74348 2.27018 4.71549 2.41106 4.66107 2.5425C4.60665 2.67394 4.52687 2.79338 4.4263 2.89399L5.38338 1.93637C5.58657 1.73317 5.86217 1.61902 6.14953 1.61902C6.43689 1.61902 6.71249 1.73317 6.91568 1.93637C7.11888 2.13957 7.23303 2.41516 7.23303 2.70252C7.23303 2.98988 7.11888 3.26548 6.91568 3.46867L3.46867 6.91568Z" stroke="#C8FF00" stroke-width="1.08328" stroke-linecap="round" stroke-linejoin="round"/>
</g>
<defs>
<clipPath id="clip0_1_176">
<rect width="12.9994" height="12.9994" fill="white"/>
</clipPath>
</defs>
</svg>
