<svg width="11" height="11" viewBox="0 0 11 11" fill="none" xmlns="http://www.w3.org/2000/svg">
<g clip-path="url(#clip0_1_299)">
<path d="M6.59423 6.59424L4.39615 4.39616" stroke="white" stroke-width="0.915867" stroke-linecap="round" stroke-linejoin="round"/>
<path d="M8.54367 9.83869C8.37194 10.0105 8.139 10.107 7.89609 10.1071C7.65318 10.1071 7.4202 10.0107 7.24841 9.83892C7.07662 9.66719 6.98008 9.43425 6.98004 9.19134C6.97999 8.94843 7.07645 8.71545 7.24818 8.54366L6.43901 9.35328C6.26722 9.52508 6.03422 9.62159 5.79127 9.62159C5.54831 9.62159 5.31531 9.52508 5.14352 9.35328C4.97173 9.18149 4.87521 8.94849 4.87521 8.70554C4.87521 8.46259 4.97173 8.22958 5.14352 8.05779L8.05781 5.1435C8.2296 4.97171 8.4626 4.8752 8.70555 4.8752C8.94851 4.8752 9.18151 4.97171 9.3533 5.1435C9.52509 5.3153 9.62161 5.5483 9.62161 5.79125C9.62161 6.0342 9.52509 6.2672 9.3533 6.439L8.54367 7.24817C8.71547 7.07643 8.94844 6.97998 9.19135 6.98002C9.43426 6.98006 9.66721 7.0766 9.83894 7.24839C10.0107 7.42019 10.1071 7.65316 10.1071 7.89607C10.107 8.13898 10.0105 8.37193 9.83871 8.54366L8.54367 9.83869Z" stroke="white" stroke-width="0.915867" stroke-linecap="round" stroke-linejoin="round"/>
<path d="M9.84557 9.84557L9.20447 9.20446" stroke="white" stroke-width="0.915867" stroke-linecap="round" stroke-linejoin="round"/>
<path d="M1.78594 1.78594L1.14484 1.14484" stroke="white" stroke-width="0.915867" stroke-linecap="round" stroke-linejoin="round"/>
<path d="M2.93261 5.84689C2.76081 6.01869 2.52781 6.1152 2.28486 6.1152C2.04191 6.1152 1.80891 6.01869 1.63711 5.84689C1.46532 5.6751 1.36881 5.4421 1.36881 5.19915C1.36881 4.9562 1.46532 4.72319 1.63711 4.5514L2.44674 3.74223C2.36168 3.82727 2.2607 3.89471 2.14957 3.94072C2.03844 3.98673 1.91934 4.0104 1.79906 4.01038C1.55615 4.01033 1.32321 3.9138 1.15147 3.742C1.06644 3.65694 0.998995 3.55596 0.952987 3.44483C0.906979 3.3337 0.88331 3.2146 0.883331 3.09432C0.883374 2.85141 0.979911 2.61847 1.1517 2.44674L2.44674 1.1517C2.61847 0.979911 2.85141 0.883374 3.09432 0.883331C3.2146 0.88331 3.3337 0.906979 3.44483 0.952987C3.55596 0.998995 3.65694 1.06644 3.742 1.15147C3.82707 1.23651 3.89455 1.33746 3.9406 1.44858C3.98664 1.55969 4.01035 1.67878 4.01038 1.79906C4.0104 1.91934 3.98673 2.03844 3.94072 2.14957C3.89471 2.2607 3.82727 2.36168 3.74223 2.44674L4.5514 1.63711C4.72319 1.46532 4.9562 1.36881 5.19915 1.36881C5.4421 1.36881 5.6751 1.46532 5.84689 1.63711C6.01869 1.80891 6.1152 2.04191 6.1152 2.28486C6.1152 2.52781 6.01869 2.76081 5.84689 2.93261L2.93261 5.84689Z" stroke="white" stroke-width="0.915867" stroke-linecap="round" stroke-linejoin="round"/>
</g>
<defs>
<clipPath id="clip0_1_299">
<rect width="10.9904" height="10.9904" fill="white"/>
</clipPath>
</defs>
</svg>
