<svg width="17" height="17" viewBox="0 0 17 17" fill="none" xmlns="http://www.w3.org/2000/svg">
<path d="M2.83229 9.91305C2.69829 9.91351 2.56692 9.87594 2.45343 9.8047C2.33994 9.73346 2.249 9.63149 2.19116 9.51062C2.13332 9.38975 2.11096 9.25496 2.12669 9.12189C2.14241 8.98882 2.19557 8.86295 2.27999 8.75889L9.28993 1.53652C9.34251 1.47583 9.41417 1.43481 9.49313 1.42021C9.5721 1.40561 9.65368 1.41828 9.7245 1.45616C9.79531 1.49404 9.85114 1.55486 9.88283 1.62865C9.91451 1.70244 9.92017 1.78481 9.89887 1.86224L8.53937 6.12485C8.49928 6.23214 8.48582 6.34755 8.50014 6.46119C8.51445 6.57483 8.55612 6.68329 8.62157 6.77729C8.68702 6.87128 8.77429 6.948 8.8759 7.00085C8.97751 7.05371 9.09043 7.08112 9.20496 7.08075H14.1615C14.2955 7.08029 14.4268 7.11787 14.5403 7.1891C14.6538 7.26034 14.7448 7.36231 14.8026 7.48318C14.8605 7.60405 14.8828 7.73885 14.8671 7.87191C14.8514 8.00498 14.7982 8.13086 14.7138 8.23491L7.70384 15.4573C7.65126 15.518 7.5796 15.559 7.50064 15.5736C7.42167 15.5882 7.34009 15.5755 7.26927 15.5376C7.19846 15.4998 7.14263 15.4389 7.11095 15.3652C7.07926 15.2914 7.0736 15.209 7.0949 15.1316L8.4544 10.869C8.49449 10.7617 8.50795 10.6462 8.49363 10.5326C8.47932 10.419 8.43765 10.3105 8.3722 10.2165C8.30675 10.1225 8.21948 10.0458 8.11787 9.99295C8.01626 9.94009 7.90334 9.91268 7.78881 9.91305H2.83229Z" stroke="#C8FF00" stroke-width="1.41615" stroke-linecap="round" stroke-linejoin="round"/>
</svg>
