<svg width="17" height="17" viewBox="0 0 17 17" fill="none" xmlns="http://www.w3.org/2000/svg">
<g clip-path="url(#clip0_1_202)">
<path d="M11.3292 14.8696V13.4535C11.3292 12.7023 11.0308 11.9819 10.4996 11.4507C9.96847 10.9196 9.24806 10.6212 8.49689 10.6212H4.24844C3.49726 10.6212 2.77686 10.9196 2.2457 11.4507C1.71454 11.9819 1.41614 12.7023 1.41614 13.4535V14.8696" stroke="#C8FF00" stroke-width="1.41615" stroke-linecap="round" stroke-linejoin="round"/>
<path d="M6.37267 7.78881C7.93691 7.78881 9.20497 6.52074 9.20497 4.95651C9.20497 3.39227 7.93691 2.12421 6.37267 2.12421C4.80844 2.12421 3.54037 3.39227 3.54037 4.95651C3.54037 6.52074 4.80844 7.78881 6.37267 7.78881Z" stroke="#C8FF00" stroke-width="1.41615" stroke-linecap="round" stroke-linejoin="round"/>
<path d="M15.5777 14.8696V13.4534C15.5772 12.8259 15.3683 12.2163 14.9838 11.7203C14.5994 11.2243 14.0611 10.8701 13.4534 10.7132" stroke="#C8FF00" stroke-width="1.41615" stroke-linecap="round" stroke-linejoin="round"/>
<path d="M11.3292 2.21625C11.9384 2.37224 12.4784 2.72656 12.864 3.22335C13.2497 3.72014 13.459 4.33115 13.459 4.96004C13.459 5.58893 13.2497 6.19993 12.864 6.69673C12.4784 7.19352 11.9384 7.54784 11.3292 7.70383" stroke="#C8FF00" stroke-width="1.41615" stroke-linecap="round" stroke-linejoin="round"/>
</g>
<defs>
<clipPath id="clip0_1_202">
<rect width="16.9938" height="16.9938" fill="white"/>
</clipPath>
</defs>
</svg>
